<svg xmlns="http://www.w3.org/2000/svg" xmlns:xlink="http://www.w3.org/1999/xlink"><defs><style>
    .sprite-symbol-usage {display: none;}
    .sprite-symbol-usage:target {display: inline;}
  </style><symbol class="icon" viewBox="0 0 1088 1024" id="align_center"><path d="M1088 124.032C1088 157.184 1061.12 184.064 1027.968 184.064L126.72 184.064C93.568 184.064 66.688 157.184 66.688 124.032L66.688 124.032C66.688 90.88 93.568 64 126.72 64L1027.968 64C1061.12 64 1088 90.88 1088 124.032L1088 124.032 1088 124.032ZM1088 892.032C1088 925.184 1061.12 952.064 1027.968 952.064L126.72 952.064C93.568 952.064 66.688 925.184 66.688 892.032L66.688 892.032C66.688 858.88 93.568 832 126.72 832L1027.968 832C1061.12 832 1088 858.88 1088 892.032L1088 892.032 1088 892.032ZM1088 508.032C1088 541.184 1061.12 568.064 1027.968 568.064L126.72 568.064C93.568 568.064 66.688 541.184 66.688 508.032L66.688 508.032C66.688 474.88 93.568 448 126.72 448L1027.968 448C1061.12 448 1088 474.88 1088 508.032L1088 508.032 1088 508.032ZM896 700.032C896 733.184 869.12 760.064 835.968 760.064L318.72 760.064C285.568 760.064 258.688 733.184 258.688 700.032L258.688 700.032C258.688 666.88 285.568 640 318.72 640L835.968 640C869.12 640 896 666.88 896 700.032L896 700.032 896 700.032ZM896 316.032C896 349.184 869.12 376.064 835.968 376.064L318.72 376.064C285.568 376.064 258.688 349.184 258.688 316.032L258.688 316.032C258.688 282.88 285.568 256 318.72 256L835.968 256C869.12 256 896 282.88 896 316.032L896 316.032 896 316.032Z" /></symbol><symbol class="icon" viewBox="0 0 1024 1024" id="align_left"><path d="M1023.934464 768.016384l0 73.138176q0 14.856192-10.856448 25.71264t-25.71264 10.856448l-950.796288 0q-14.856192 0-25.71264-10.856448t-10.856448-25.71264l0-73.138176q0-14.856192 10.856448-25.71264t25.71264-10.856448l950.796288 0q14.856192 0 25.71264 10.856448t10.856448 25.71264zm-219.414528-219.414528l0 73.138176q0 14.856192-10.856448 25.71264t-25.71264 10.856448l-731.38176 0q-14.856192 0-25.71264-10.856448t-10.856448-25.71264l0-73.138176q0-14.856192 10.856448-25.71264t25.71264-10.856448l731.38176 0q14.856192 0 25.71264 10.856448t10.856448 25.71264zm146.276352-219.414528l0 73.138176q0 14.856192-10.856448 25.71264t-25.71264 10.856448l-877.658112 0q-14.856192 0-25.71264-10.856448t-10.856448-25.71264l0-73.138176q0-14.856192 10.856448-25.71264t25.71264-10.856448l877.658112 0q14.856192 0 25.71264 10.856448t10.856448 25.71264zm-219.414528-219.414528l0 73.138176q0 14.856192-10.856448 25.71264t-25.71264 10.856448l-658.243584 0q-14.856192 0-25.71264-10.856448t-10.856448-25.71264l0-73.138176q0-14.856192 10.856448-25.71264t25.71264-10.856448l658.243584 0q14.856192 0 25.71264 10.856448t10.856448 25.71264z" /></symbol><symbol class="icon" viewBox="0 0 1024 1024" id="align_right"><path d="M1024 768l0 73.142857q0 14.857143-10.857143 25.714286t-25.714286 10.857143l-950.857143 0q-14.857143 0-25.714286-10.857143t-10.857143-25.714286l0-73.142857q0-14.857143 10.857143-25.714286t25.714286-10.857143l950.857143 0q14.857143 0 25.714286 10.857143t10.857143 25.714286zm0-219.428571l0 73.142857q0 14.857143-10.857143 25.714286t-25.714286 10.857143l-731.428571 0q-14.857143 0-25.714286-10.857143t-10.857143-25.714286l0-73.142857q0-14.857143 10.857143-25.714286t25.714286-10.857143l731.428571 0q14.857143 0 25.714286 10.857143t10.857143 25.714286zm0-219.428571l0 73.142857q0 14.857143-10.857143 25.714286t-25.714286 10.857143l-877.714286 0q-14.857143 0-25.714286-10.857143t-10.857143-25.714286l0-73.142857q0-14.857143 10.857143-25.714286t25.714286-10.857143l877.714286 0q14.857143 0 25.714286 10.857143t10.857143 25.714286zm0-219.428571l0 73.142857q0 14.857143-10.857143 25.714286t-25.714286 10.857143l-658.285714 0q-14.857143 0-25.714286-10.857143t-10.857143-25.714286l0-73.142857q0-14.857143 10.857143-25.714286t25.714286-10.857143l658.285714 0q14.857143 0 25.714286 10.857143t10.857143 25.714286z" /></symbol><symbol class="icon" viewBox="0 0 1024 1024" id="delete"><path d="M704 128c-8.384-49.536-50.56-64-92.8-64L407.872 64C365.632 64 328.448 78.464 320 128l0 64 384 0L704 128zM204.8 412.416l0 473.216C204.8 934.144 228.288 960 281.6 960l460.8 0c53.376 0 76.8-25.856 76.8-74.368L819.2 412.416c53.952 0 76.8-29.76 76.8-78.208C896 285.696 872.512 256 819.2 256L550.4 256 204.8 256C151.488 256 128 285.696 128 334.208 128 382.656 151.488 412.416 204.8 412.416zM576 387.968C576 386.496 576.576 385.408 576.704 384l62.656 0C639.488 385.408 640 386.496 640 387.968l0 414.464c0 39.424-64 39.424-64 0L576 387.968zM384 387.968C384 386.496 384.448 385.408 384.64 384l59.136 0c0.128 1.408 0.704 2.496 0.704 3.968l0 414.464c0 39.424-60.48 39.424-60.48 0L384 387.968z" /></symbol><symbol class="icon" viewBox="0 0 1024 1024" id="folder"><defs><style type="text/css"></style></defs><path d="M987.428571 347.428571l0 402.285714q0 52.571429-37.714286 90.285714t-90.285714 37.714286l-694.857143 0q-52.571429 0-90.285714-37.714286t-37.714286-90.285714l0-548.571429q0-52.571429 37.714286-90.285714t90.285714-37.714286l182.857143 0q52.571429 0 90.285714 37.714286t37.714286 90.285714l0 18.285714 384 0q52.571429 0 90.285714 37.714286t37.714286 90.285714z" p-id="2462" fill="#bfbfbf" /></symbol><symbol class="icon" viewBox="0 0 1102 1024" id="format_clear"><path d="M1080.250549 450.146304c-1.496256 1.575007-3.543765 2.126259-5.197522 3.465015l-306.338806 306.338806c-1.338756 1.653757-1.890008 3.701266-3.465014 5.197522-1.496256 1.575007-3.543765 2.126259-5.197523 3.465015L662.165017 866.499329H866.600888a78.750336 78.750336 0 0 1 0 157.500671H317.9473a78.671585 78.671585 0 0 1-59.850255-25.436358l-229.95098-229.95098C26.492308 767.273906 24.444799 766.722653 22.948543 765.147647A77.49033 77.49033 0 0 1 0.189696 708.998657a77.49033 77.49033 0 0 1 22.758847-56.148989c1.496256-1.575007 3.543765-2.126259 5.197522-3.465015l306.338806-306.338805c1.338756-1.653757 1.890008-3.701266 3.465014-5.197522 1.496256-1.575007 3.543765-2.126259 5.197523-3.465015l306.338805-306.338806c1.338756-1.653757 1.890008-3.701266 3.465015-5.197522A77.49033 77.49033 0 0 1 709.100217 0.088136a77.49033 77.49033 0 0 1 56.14899 22.758847c1.575007 1.496256 2.126259 3.543765 3.465014 5.197522l306.338806 306.338806c1.653757 1.338756 3.701266 1.890008 5.197522 3.465015a77.49033 77.49033 0 0 1 22.758847 56.148989 77.49033 77.49033 0 0 1-22.758847 56.148989zM347.163675 866.499329h93.8704l157.500671-157.500672L394.098875 504.562786 189.663003 708.998657l157.500672 157.500672zM709.100217 189.561444L504.664346 393.997315 709.100217 598.433186 913.536089 393.997315 709.100217 189.561444z" /></symbol><symbol class="icon" viewBox="0 0 1024 1024" id="format_code"><path d="M427.472384 901.8112l255.6672-742.4c0.2048-0.5632 0.3328-1.2544 0.4608-1.8176L427.472384 901.8112zM683.241984 120.704h-77.4656a9.2928 9.2928 0 0 0-8.7296 6.2208L331.395584 898.2272a9.216 9.216 0 0 0 8.7296 12.16h77.8496c3.8912 0 7.4752-2.56 8.704-6.1952l0.7936-2.4064L683.600384 157.5424l8.4992-24.576a9.2928 9.2928 0 0 0-8.8576-12.2624z m336.8704 382.7456a22.3232 22.3232 0 0 0-3.0976-3.1232l-251.4176-196.6336a9.088 9.088 0 0 0-12.8256 1.6128 8.832 8.832 0 0 0-1.9712 5.632v93.3376c0 2.8672 1.28 5.5296 3.584 7.2448l131.9936 103.3216-131.9936 103.296a9.2672 9.2672 0 0 0-3.584 7.2448v93.3376a9.216 9.216 0 0 0 9.1648 9.1648 9.216 9.216 0 0 0 5.632-1.9456l251.4176-196.6848a18.432 18.432 0 0 0 3.0976-25.8048z m-761.728-199.7568l-251.392 196.6336a18.5088 18.5088 0 0 0 0 28.9536l251.392 196.6848a9.216 9.216 0 0 0 14.8224-7.2192V625.408a8.96 8.96 0 0 0-3.5584-7.2448L137.603584 514.816l132.0192-103.296a9.2416 9.2416 0 0 0 3.5584-7.2448v-93.3376a9.1392 9.1392 0 0 0-14.7968-7.2448z" /></symbol><symbol class="icon" viewBox="0 0 1024 1024" id="format_emphasis"><path d="M215.80114499 955.11348892c50.94620249-2.88793886 101.22595969-11.55175537 152.7645584-11.55175535 39.32039807 0 79.23319465 0.59239845 119.14599117 1.18479469 32.95212199 0.59239845 67.08904083 11.55175537 100.04116277 11.55175538 12.73655008 0 24.88070387-1.70314416 37.61725397-1.70314418 4.66513197-19.1048262 8.07141809-38.20965239 9.25621499-57.24042741-35.84006083-5.77587767-71.75417278-9.84861123-107.00183737-17.92003148l-0.59239628-10.4410097c-2.29554042-24.28830544 26.06549857-139.43561205 31.84137629-167.20425475 30.65658156-148.69182484 67.68143927-298.49439762 95.45008197-448.3710172 5.77587767-32.95212199 8.66381652-67.08904083 21.4003666-98.3380208 39.32039807-15.62448892 81.60278405-21.99276506 121.51558058-35.84006083 4.591083-16.80928578 8.66381652-34.21096784 10.95935693-51.53860093-61.31316314 3.48033727-122.62632629 9.25621497-183.93948942 9.25621499-75.23451007 0-150.98736745-5.77587767-225.62947689-9.25621499l-11.03340811 59.61001903c34.72931509 5.77587767 73.45731696 1.18479472 105.29869321 18.51242992v14.43969421c1.70314416 46.28107047-124.40351941 613.79807881-131.88254125 653.11847695-4.07273353 20.21557193-10.44100965 41.68998966-23.695907 58.42522429-34.72931509 17.9200315-74.64211166 22.58516347-111.66696934 34.13691665l-9.84861122 49.16901151z" /></symbol><symbol class="icon" viewBox="0 0 1024 1024" id="format_image"><path d="M288.04137 166.05184c14.41792 0 28.2624 2.8672 41.5744 8.51968 13.27104 5.69344 24.65792 13.27104 34.16064 22.7328 9.46176 9.50272 17.08032 20.6848 22.77376 33.5872 5.69344 12.86144 8.51968 26.50112 8.51968 40.91904 0 29.57312-10.4448 54.59968-31.29344 75.07968-20.8896 20.48-46.12096 30.72-75.73504 30.72-14.41792 0-28.0576-2.70336-40.96-7.9872a97.60768 97.60768 0 0 1-33.5872-22.7328 119.1936 119.1936 0 0 1-22.77376-33.5872 99.04128 99.04128 0 0 1-8.56064-41.49248c0-14.41792 2.8672-28.0576 8.56064-40.96 5.69344-12.86144 13.27104-24.04352 22.77376-33.54624 9.46176-9.46176 20.6848-17.03936 33.5872-22.7328a100.51584 100.51584 0 0 1 40.96-8.51968zM916.53161 0c38.7072 0 66.19136 10.81344 82.5344 32.39936 16.30208 21.62688 24.45312 49.84832 24.45312 84.74624v816.57856c0 10.60864-2.4576 21.42208-7.3728 32.39936s-11.75552 20.64384-20.48 28.99968c-8.76544 8.35584-18.8416 15.1552-30.18752 20.48-11.38688 5.3248-23.92064 7.94624-37.56032 7.94624H88.81193c-23.51104 0-44.2368-9.46176-62.0544-28.42624A96.0512 96.0512 0 0 1 0.01065 926.88384V94.4128C0.01065 67.09248 7.58825 44.52352 22.78441 26.70592 37.93961 8.88832 58.09193 0 83.11849 0h833.41312z m4.5056 133.07904a30.47424 30.47424 0 0 0-9.6256-22.20032 31.82592 31.82592 0 0 0-23.3472-9.66656H134.35945a29.98272 29.98272 0 0 0-22.77376 9.66656 31.41632 31.41632 0 0 0-9.09312 22.20032V541.32736c7.5776 9.13408 17.6128 19.53792 30.14656 31.29344a259.6864 259.6864 0 0 0 44.40064 32.9728c17.08032 10.24 36.4544 18.96448 58.08128 26.17344a227.9424 227.9424 0 0 0 72.2944 10.81344c40.96 0 77.0048-6.63552 108.1344-19.90656a488.6528 488.6528 0 0 0 88.2688-48.90624c27.68896-19.33312 54.84544-40.5504 81.38752-63.6928a731.42272 731.42272 0 0 1 87.08096-64.83968c31.5392-20.0704 67.3792-37.15072 107.60192-51.2 40.22272-14.00832 87.28576-22.1184 141.18912-24.41216V133.07904z" /></symbol><symbol class="icon" viewBox="0 0 1024 1024" id="format_link"><path d="M938.544291 89.367377l-3.895886-3.894703c-90.994069-90.989317-239.847217-90.989317-330.836169 0L393.050619 296.228725c-90.994069 90.987271-90.994069 239.866043 0 330.823638l3.895886 3.895727c7.547192 7.610328 15.581499 14.404058 23.916669 20.716834l77.186032-77.18901c-8.96453-5.314029-17.482879-11.685133-25.214275-19.35686l-3.894863-3.895727c-49.434878-49.341778-49.434878-129.733737 0-179.165566l210.702263-210.757075c49.405201-49.434899 129.769753-49.434899 179.17393 0l3.89998 3.895727c49.375524 49.405223 49.375524 129.763412 0 179.168636L767.340196 439.73207c16.582333 40.889269 24.431413 84.463694 23.708929 127.949091l147.435811-147.427724C1029.533243 329.20579 1029.533243 180.355671 938.544291 89.367377zM627.006421 393.104099c-7.553333-7.549953-15.585592-14.432711-23.917692-20.714787l-77.192173 77.124542c8.97067 5.317099 17.483903 11.68718 25.215298 19.327184l3.895886 3.927449c49.439995 49.4042 49.439995 129.730667 0 179.166589L344.305477 862.750479c-49.405201 49.345871-129.768729 49.345871-179.17393 0l-3.894863-3.865028c-49.379617-49.465598-49.379617-129.793088 0-179.196265l95.369905-95.365998c-16.582333-40.889269-24.372059-84.46574-23.707906-127.95216L85.461849 603.798752c-90.988952 90.987271-90.988952 239.866043 0 330.822614l3.89998 3.928472c90.988952 90.957595 239.843124 90.957595 330.838216 0l210.761617-210.816426c90.989975-90.958618 90.989975-239.835344 0-330.793962L627.006421 393.104099z" /></symbol><symbol class="icon" viewBox="0 0 1147 1024" id="format_strike"><path d="M753.441054 488.930632s-369.00991-46.113742-369.009909-230.618696c0-92.252477 73.806981-138.391213 193.727703-138.391214 119.945716 0 166.059458 55.361484 175.282206 73.806981s18.445497 36.890993 27.668245 64.584233l138.391214-27.693239c-9.222748-36.890993-18.445497-73.806981-36.915988-101.475226C864.139029 101.475226 781.109299 0 578.158848 0S236.817183 119.920722 236.817183 267.534684c0 147.588968 119.945716 212.1732 119.945717 212.1732H0v92.252477h624.297584s166.034464 27.668245 166.034464 166.059458c0 129.143471-101.475226 166.059458-221.395948 166.059459-166.059458 0-230.618697-119.945716-249.089188-166.059459l-138.366219 27.668245c27.668245 92.252477 92.252477 258.311936 378.232658 258.311936 341.341665 0 359.787161-249.089187 359.787162-295.202929 0-119.945716-55.361484-166.059458-55.361484-166.059458h282.930925v-73.806981H753.441054z" /></symbol><symbol class="icon" viewBox="0 0 1024 1024" id="format_strong"><path d="M759.722667 471.210667a257.706667 257.706667 0 0 0 72.277333-179.114667v-13.568C832 135.082667 714.496 18.773333 569.770667 18.773333H175.189333a36.608 36.608 0 0 0-36.522666 36.522667v905.386667c0 21.76 17.578667 39.424 39.253333 39.424h424.96a281.514667 281.514667 0 0 0 282.453333-280.746667v-14.592c0-97.28-49.834667-183.04-125.610666-233.472zM266.666667 146.688h299.52c76.202667 0 137.813333 59.136 137.813333 132.352v12.714667c0 73.045333-61.696 132.352-137.728 132.352H266.666667V146.773333z m488.789333 572.586667c0 83.797333-68.949333 151.808-154.026667 151.808H266.666667V552.96h334.762666c85.077333 0 154.026667 68.010667 154.026667 151.893333v14.336z" /></symbol><symbol class="icon" viewBox="0 0 1024 1024" id="image"><defs><style type="text/css"></style></defs><path d="M928 128H96C42.98 128 0 170.98 0 224v576c0 53.02 42.98 96 96 96h832c53.02 0 96-42.98 96-96V224c0-53.02-42.98-96-96-96z m-12 672H108a12 12 0 0 1-12-12V236a12 12 0 0 1 12-12h808a12 12 0 0 1 12 12v552a12 12 0 0 1-12 12zM256 304c-44.182 0-80 35.818-80 80s35.818 80 80 80 80-35.818 80-80-35.818-80-80-80zM192 704h640v-160l-175.03-175.03c-9.372-9.372-24.568-9.372-33.942 0L384 608l-79.03-79.03c-9.372-9.372-24.568-9.372-33.942 0L192 608v96z" p-id="4257" fill="#bfbfbf" /></symbol><symbol class="icon" viewBox="0 0 1024 1024" id="table"><defs><style type="text/css"></style></defs><path d="M921.543111 1023.93363H102.456889c-56.547556 0-102.390519-45.842963-102.390519-102.390519V102.456889C0.06637 45.966222 45.928296 0.06637 102.456889 0.06637h819.086222c56.528593 0 102.390519 45.899852 102.390519 102.390519v819.086222c0 56.547556-45.842963 102.390519-102.390519 102.390519zM329.509926 800.379259H70.684444v64.673185a88.272593 88.272593 0 0 0 88.263112 88.272593h170.56237V800.369778z m296.457481-0.284444H493.568v0.284444H400.118519v152.936297h225.848888v-153.220741z m327.348149 0H696.576v153.220741h168.485926a88.272593 88.272593 0 0 0 88.25363-88.263112v-64.957629zM70.684444 600.832v128.929185h258.825482V600.841481H70.684444z m555.282963-0.493037H493.568v0.493037H400.118519v128.654222h225.848888V600.338963z m327.348149 0H696.576v129.137778h256.739556v-129.137778zM70.684444 364.942222v165.262222h258.825482v-165.262222H70.684444z m555.282963 0H400.118519V529.73037h225.848888V364.951704z m327.348149 0H696.576V529.73037h256.739556V364.951704z" p-id="22860" /></symbol><symbol class="icon" viewBox="0 0 1024 1024" id="upload"><defs><style type="text/css"></style></defs><path d="M512.01216 128C388.30016 128 281.61216 198.4 230.41216 304A263.552 263.552 0 0 0 0.01216 568C0.01216 713.216 115.21216 832 256.01216 832h554.688C930.12416 832 1024.01216 735.168 1024.01216 611.968c0-114.368-89.6-211.2-196.288-219.968C797.90016 242.368 669.90016 128 512.01216 128z m102.4 576H409.61216V533.312H256.01216L512.01216 320l256 213.312H614.41216V704z" p-id="3366" fill="#bfbfbf" /></symbol></defs><use id="align_center-usage" xlink:href="#align_center" class="sprite-symbol-usage" /><use id="align_left-usage" xlink:href="#align_left" class="sprite-symbol-usage" /><use id="align_right-usage" xlink:href="#align_right" class="sprite-symbol-usage" /><use id="delete-usage" xlink:href="#delete" class="sprite-symbol-usage" /><use id="folder-usage" xlink:href="#folder" class="sprite-symbol-usage" /><use id="format_clear-usage" xlink:href="#format_clear" class="sprite-symbol-usage" /><use id="format_code-usage" xlink:href="#format_code" class="sprite-symbol-usage" /><use id="format_emphasis-usage" xlink:href="#format_emphasis" class="sprite-symbol-usage" /><use id="format_image-usage" xlink:href="#format_image" class="sprite-symbol-usage" /><use id="format_link-usage" xlink:href="#format_link" class="sprite-symbol-usage" /><use id="format_strike-usage" xlink:href="#format_strike" class="sprite-symbol-usage" /><use id="format_strong-usage" xlink:href="#format_strong" class="sprite-symbol-usage" /><use id="image-usage" xlink:href="#image" class="sprite-symbol-usage" /><use id="table-usage" xlink:href="#table" class="sprite-symbol-usage" /><use id="upload-usage" xlink:href="#upload" class="sprite-symbol-usage" /></svg>